<svg xmlns="http://www.w3.org/2000/svg" width="60" height="60" viewBox="0 0 60 60">
  <defs>
    <style>
      .cls-1 {
        fill: #46a5e5;
        fill-rule: evenodd;
      }
    </style>
  </defs>
  <path id="Logo" class="cls-1" d="M85.938,42.272A28.53,28.53,0,0,0,80,60c0,14.752,11.876,30,30.186,30S140,74.565,140,60.122,128.99,30,110.309,30C97.072,30,94.1,35.949,94.1,38.8s2.845,7.066,9.4,7.066h8.041c7.794,0,14.1,5.579,14.1,14.256S118.6,74.131,111.3,74.131h-9.031a4.223,4.223,0,0,1-4.454-4.587c0-3.1,2.722-3.967,4.7-3.967h8.413c2.165,0,6.185-1.3,6.185-5.579s-3.525-5.578-5.814-5.578h-8.536c-2.722,0-8.784-1.178-12.248-4.463A17.864,17.864,0,0,1,85.938,42.272Z" transform="translate(-80 -30)"/>
</svg>
